<svg width="120" height="48" viewBox="0 0 120 48" fill="none" xmlns="http://www.w3.org/2000/svg">
<g clip-path="url(#clip0_640_9524)">
<path d="M58 23L61 31L64 23L67 31L70 23" stroke="#4B5560" stroke-width="2.5" stroke-linecap="round" stroke-linejoin="round"/>
<path d="M74 31V19L83 31V19" stroke="#4B5560" stroke-width="2.5" stroke-linecap="round" stroke-linejoin="round"/>
<path d="M93 19H87V31M87 25H93" stroke="#4B5560" stroke-width="2.5" stroke-linecap="round" stroke-linejoin="round"/>
<path d="M101 19V31M97 19H105" stroke="#4B5560" stroke-width="2.5" stroke-linecap="round" stroke-linejoin="round"/>
<path d="M28 44C39.0457 44 48 35.0457 48 24C48 12.9543 39.0457 4 28 4C16.9543 4 8 12.9543 8 24C8 35.0457 16.9543 44 28 44Z" fill="#2ED7AF"/>
<path opacity="0.1" d="M28 44C39.0457 44 48 35.0457 48 24C48 12.9543 39.0457 4 28 4C16.9543 4 8 12.9543 8 24C8 35.0457 16.9543 44 28 44Z" fill="black"/>
<path d="M14.0828 20.1577C13.7695 20.4709 13.521 20.8428 13.3515 21.2521C13.182 21.6614 13.0947 22.1 13.0947 22.543C13.0947 22.986 13.182 23.4247 13.3515 23.8339C13.521 24.2432 13.7695 24.6151 14.0828 24.9283L21.0668 31.9123C21.6999 32.5451 22.5583 32.9006 23.4534 32.9006C24.3486 32.9006 25.207 32.5451 25.8401 31.9123L26.8721 30.8803C27.1721 30.5807 27.5788 30.4124 28.0028 30.4124C28.4268 30.4124 28.8334 30.5807 29.1334 30.8803L30.1654 31.9123C30.7985 32.5451 31.657 32.9006 32.5521 32.9006C33.4472 32.9006 34.3057 32.5451 34.9388 31.9123L41.9201 24.9283C42.2334 24.6151 42.4818 24.2432 42.6514 23.8339C42.8209 23.4247 42.9082 22.986 42.9082 22.543C42.9082 22.1 42.8209 21.6614 42.6514 21.2521C42.4818 20.8428 42.2334 20.4709 41.9201 20.1577L39.9868 18.2217C39.6735 17.9084 39.3017 17.6599 38.8924 17.4904C38.4831 17.3209 38.0444 17.2336 37.6014 17.2336C37.1584 17.2336 36.7198 17.3209 36.3105 17.4904C35.9012 17.6599 35.5294 17.9084 35.2161 18.2217L32.8161 20.635L30.4161 18.2217C29.783 17.5889 28.9246 17.2334 28.0294 17.2334C27.1343 17.2334 26.2759 17.5889 25.6428 18.2217L23.2428 20.635L20.8428 18.2217C20.5295 17.9084 20.1577 17.6599 19.7484 17.4904C19.3391 17.3209 18.9004 17.2336 18.4574 17.2336C18.0144 17.2336 17.5758 17.3209 17.1665 17.4904C16.7572 17.6599 16.3854 17.9084 16.0721 18.2217L14.0828 20.1577Z" fill="white"/>
<path style="mix-blend-mode:multiply" opacity="0.65" d="M32.8 20.6348L37.12 24.9548C37.4333 25.268 37.8052 25.5165 38.2144 25.6861C38.6237 25.8556 39.0624 25.9428 39.5054 25.9428C39.9484 25.9428 40.387 25.8556 40.7963 25.6861C41.2056 25.5165 41.5775 25.268 41.8907 24.9548L41.9174 24.9281C42.2306 24.6149 42.4791 24.243 42.6486 23.8337C42.8182 23.4244 42.9054 22.9858 42.9054 22.5428C42.9054 22.0998 42.8182 21.6611 42.6486 21.2518C42.4791 20.8426 42.2306 20.4707 41.9174 20.1575L39.984 18.2215C39.6708 17.9082 39.2989 17.6597 38.8897 17.4902C38.4804 17.3207 38.0417 17.2334 37.5987 17.2334C37.1557 17.2334 36.7171 17.3207 36.3078 17.4902C35.8985 17.6597 35.5266 17.9082 35.2134 18.2215L32.8 20.6348Z" fill="url(#paint0_linear_640_9524)"/>
<path style="mix-blend-mode:multiply" opacity="0.65" d="M23.2001 20.6348L18.8801 24.9548C18.5669 25.268 18.195 25.5165 17.7857 25.6861C17.3764 25.8556 16.9378 25.9428 16.4948 25.9428C16.0518 25.9428 15.6131 25.8556 15.2038 25.6861C14.7946 25.5165 14.4227 25.268 14.1094 24.9548L14.0828 24.9281C13.7695 24.6149 13.521 24.243 13.3515 23.8337C13.182 23.4244 13.0947 22.9858 13.0947 22.5428C13.0947 22.0998 13.182 21.6611 13.3515 21.2518C13.521 20.8426 13.7695 20.4707 14.0828 20.1575L16.0161 18.2215C16.3294 17.9082 16.7012 17.6597 17.1105 17.4902C17.5198 17.3207 17.9584 17.2334 18.4014 17.2334C18.8444 17.2334 19.2831 17.3207 19.6924 17.4902C20.1017 17.6597 20.4735 17.9082 20.7868 18.2215L23.2001 20.6348Z" fill="url(#paint1_linear_640_9524)"/>
</g>
<defs>
<linearGradient id="paint0_linear_640_9524" x1="41.3627" y1="18.5868" x2="36.2907" y2="23.9015" gradientUnits="userSpaceOnUse">
<stop stop-color="white" stop-opacity="0"/>
<stop offset="1" stop-color="#A4B2BF"/>
</linearGradient>
<linearGradient id="paint1_linear_640_9524" x1="15.2223" y1="19.0001" x2="20.2223" y2="24.0001" gradientUnits="userSpaceOnUse">
<stop stop-color="white" stop-opacity="0"/>
<stop offset="1" stop-color="#A4B2BF"/>
</linearGradient>
<clipPath id="clip0_640_9524">
<rect width="120" height="48" fill="white"/>
</clipPath>
</defs>
</svg>
